<svg xmlns="http://www.w3.org/2000/svg" xmlns:xlink="http://www.w3.org/1999/xlink" xmlns:xodm="http://www.corel.com/coreldraw/odm/2003" xml:space="preserve" version="1.1" style="shape-rendering:geometricPrecision; text-rendering:geometricPrecision; image-rendering:optimizeQuality; fill-rule:evenodd; clip-rule:evenodd" viewBox="8987.65 4187.07 11061.43 11905.97">
 <defs>
  <style type="text/css">
   <![CDATA[
    .str0 {stroke:#00577D;stroke-width:20;stroke-miterlimit:22.9256}
    .str1 {stroke:#00577D;stroke-width:250;stroke-linecap:round;stroke-linejoin:round;stroke-miterlimit:22.9256}
    .fil1 {fill:none}
    .fil0 {fill:#00577D}
   ]]>
  </style>
 </defs>
 <g id="Layer_x0020_1">
  <metadata id="CorelCorpID_0Corel-Layer"/>
  <g id="_1507961862544">
   <path class="fil0 str0" d="M15704.77 9296.71c54.48,22.93 93.54,83.52 99.21,151.8 3.69,44.43 -6.75,92.13 -36.31,134.85 -146.35,211.42 -473.05,-47.42 -307.5,-239.56 45.27,-52.54 90.21,-78.14 139.89,-78.42 32.41,-0.18 66.84,10.4 104.71,31.33zm1742.79 -2147.95c75.08,77.08 100.32,176.26 9.43,270.75 -80.75,83.96 -190.35,77.88 -266.34,-8.51 -194.76,-149.78 85.59,-456.61 256.91,-262.24zm-27.58 -119.83c-103.2,-32.74 -102.7,-23.36 -207.56,-7.18 -56.29,52.52 -59.61,22.15 -108.01,88.15 -28.64,39.06 -37.65,83.5 -67.24,129.25 -467.1,12.77 -922.8,-7.28 -1386.23,1.96l-1.19 -314.33c273.36,3.14 546.03,20.79 818.26,3.85l305.19 -436.15c62.86,-93.46 38.8,-75.7 176.41,-75.86 19.94,21.83 12.72,13.07 31.14,44.48 36.96,62.96 23.15,78.53 74.49,123.75 133.23,117.41 449.34,84.65 457.11,-200.66 6.43,-236.11 -359.77,-480.11 -547.06,-52.42l-197.66 3.88c-33.46,72.92 -111.14,176.32 -162.52,251.29 -201.19,293.55 -68.85,224.71 -329.79,264.65 -9.17,-9.82 -529.19,-1.53 -626.58,-0.96l-1.41 -279.22c482.81,4.77 374.71,37.23 524.24,-133.46l296.44 -337.08c111.75,46.46 217.05,68.85 317.49,-12.43 323.69,-261.9 -151.09,-716.21 -392.44,-371.25 -98.45,140.69 9.38,257.94 -10.81,325.6l-350.62 429.38c-75.63,44.04 -279.03,17.36 -382.2,18.76l0.19 -1092.79c19.38,-14.77 10.3,-7.25 43.92,-27.63 520.33,-315.13 -159.79,-789.62 -332.63,-378.07 -32.97,78.51 -32.22,143.2 -13.76,196.17 45.88,131.55 201.25,190.79 222.33,209.53l4.91 309.95 -115.91 -110.3c-207.12,-235.32 -666.06,-212.37 -878.96,100.95l-65.38 113.82c-1.35,-3.35 -5.81,9.66 -9.18,14.17 -379.9,106.09 -416.35,154.9 -558.93,491.3 -33.69,460.78 -24.57,143.57 -260.82,523.26 -153.04,245.96 -171.56,613.09 -69.97,884.96 7.22,19.31 13.82,36.31 19.92,51.51 -18.5,-99.98 -34.38,-204.88 -47.62,-314.76 13.24,109.88 29.12,214.78 47.62,314.76 97.68,243.37 58.6,-6.35 69.15,306.63 55.1,203.39 123.87,381.06 206.28,533.03 95.97,99.21 222.37,156.11 389.13,184.2 182.64,30.76 230.46,464.47 788.86,390.42 132.87,-17.61 228.29,-66.07 298.92,-119.57 97.16,-73.59 147.44,-156.73 183.84,-182.38l1.07 275.95c-14.09,12.19 -28.88,22.98 -43.9,33.07 -93.32,62.66 -195.17,98.02 -188.03,273.59 13.1,321.88 484.76,355.45 537.93,40.64 2.2,-13.02 3.77,-26.56 4.47,-40.77 10.69,-215.26 -160.43,-240.09 -232.16,-306.53l-3.99 -1063.48c49.68,-0.53 374.77,-0.24 384.88,5.22 114.97,62.25 298.3,399.65 389.93,532.5 -26.45,73.4 -164.73,268.56 35.76,426.74 139.97,110.45 374.1,28.1 416.17,-98.25 72.18,-309.91 -115.95,-426.86 -391.57,-367.65 -48.38,-113.49 -247.03,-398.12 -334.97,-516.08 -29.48,-39.55 -55.86,-63.31 -88.82,-67.14 -18.54,-2.15 -358.81,4.85 -405.96,4.63l-4.45 -313.8c213.47,0.09 618.12,-28.53 817.23,11.54 80.27,132.34 208.55,351.74 309.54,460.46l190.66 4.83 64.73 120.84c37.44,50.17 89.53,98.92 186.33,107.13 69.25,5.86 104.99,-6.24 145.84,-27.14 11.32,-5.8 23.03,-12.27 35.95,-19.22 3.56,-1.91 9.38,-5.42 12.71,-7.18l0.28 -0.13c32.47,-86.68 48.01,-160.21 46.61,-220.59 1.4,60.38 -14.14,133.91 -46.61,220.59l37.2 -17.54c75.04,-188.54 105.72,-374.47 -98.99,-452.33 -271.74,-103.35 -346.94,135.85 -367.24,170.67 -20.37,34.92 -10.77,21.23 -32.33,44.49 -168.83,-1.24 -134.34,13.53 -214.05,-105.73 -115.74,-173.17 -169.04,-294.67 -245.11,-347.73 -51.49,-35.9 -747.6,-20.39 -839.28,-21.61l-3.5 -313.36c463.03,1.71 924.4,5.57 1389.5,6.78 66.03,100.82 63.92,160.02 168.9,206.32 314.62,138.74 573.19,-322.98 213.91,-502.89zm-3715.67 1057.46c1.1,32.71 2.73,71.44 5.14,117.65 44.76,185.59 108.89,320.02 201.14,415.38 -82.41,-151.97 -151.18,-329.64 -206.28,-533.03zm3004.31 594.63c92.12,21.31 120.24,113.45 104.56,197.14 -11.38,60.74 -44.86,114.83 -99.13,142.15 -43.61,21.96 -66.56,23.4 -113.07,19.17 -286.56,-26.07 -183.86,-507.71 107.64,-358.46zm-746.75 -630.22c2.4,6.4 4.48,12.1 6.32,17.17 -4.03,-4.87 -6.94,-10.34 -6.32,-17.17zm1444.24 17.12c132.29,165.77 -186.64,423.67 -347.49,136.24 -49.23,-285.54 289.4,-329.31 347.49,-136.24zm-1136.39 -419.84l0.88 2.36c-0.52,-0.83 -0.84,-1.63 -0.88,-2.36zm1091.66 -1124.98c-124.49,118.1 -323.63,5.89 -312.78,-158.66 4.94,-75.28 62.45,-138.41 113.73,-162.21 48.9,-22.74 60.41,-24.14 113.57,-14.28 34.24,6.34 22.89,4.84 46.28,18.12 132.5,75.3 161.62,210.38 39.2,317.03zm-593.65 -749.08c92.67,83.73 27.81,228.74 -33.76,265.09 -47.92,28.32 -113.21,36.12 -175.13,21.14 -69.06,-16.7 -82.7,-27.96 -98.7,-88.3 -102.9,-166.07 41.74,-339.58 219.66,-283.92 51.54,16.09 74.97,39.76 87.93,85.99zm-1305.57 2488.46l108.09 0.78c-1.84,264.18 8.01,599.94 -236.91,762.57 -60.3,40.05 -135.97,69.64 -231.14,85.03 -78.32,12.67 -216.61,15.02 -291.32,-14.79 -74.43,-29.69 -31.71,-6.82 -70.8,-46.77 -201.29,-22.69 -402.71,-339.55 -310.51,-627.3 18.89,-58.98 40.63,-107.7 66,-148.54 100.13,-161.2 256.69,-199.18 516.88,-257.33 55.57,-124.8 -5.93,-162.28 95.92,-273.98 57.04,-62.54 175.43,-72.71 234.3,-151.38 -117.96,-91.96 -312.6,110.23 -350.83,186.88 -32.87,65.89 -33.7,109.32 -56.23,167.96 -95.51,18.86 -182.49,38.09 -266.38,80.02 -101.44,50.66 -132.63,123.63 -215.22,155.72 -27.85,-8.16 -70.92,-25.96 -110.96,-44.86 -43.11,-20.34 -82.7,-41.96 -95.96,-54.22 -29.5,-27.3 -41.97,-52.11 -48.26,-75.3 -14.23,-52.46 3.14,-96.7 -73.21,-143.09l-22.15 57.45 -0.31 0.8c-0.86,6.24 -2.36,12.95 -2.69,19.81 -3.43,71.39 48.32,131.47 91.66,173.68 53.79,52.33 117.67,107.67 222.01,129.18 -75.15,252.35 -83.53,184.78 -69.81,483.1 -356.46,-27.18 -563.23,-316.87 -563.94,-632.93 -0.63,-280.33 46.6,-100.5 -67.02,-333.65 -37,-75.95 -62.02,-165.04 -74.99,-257.67 -19.83,-141.66 -11.48,-291.61 25.34,-415.56 74.92,-252.16 185.94,-329.81 357.49,-461.2 -18.27,-368.34 119.24,-626.4 475.76,-715.87 -31.74,215.6 6.03,333.14 105.07,474.9 -63.35,58.69 -150.25,93.62 -196.67,148.7 -51.09,60.64 -114.09,172.35 -38.93,232.05 85.2,-58.8 4.13,-206.83 306.47,-304.62 78.19,61.59 365.8,258.57 433.02,94.09 -7.49,-4.61 -667.03,-92.52 -527.5,-659.9 27.7,-112.66 59.7,-143.55 116.29,-211.83 241.74,-291.63 939.45,-248.06 867.48,539.54 -399.81,33.08 -383.7,-273.76 -517.04,-312.87 -58.36,118.4 110.03,380.55 523.25,403.46l-1.81 742.27c-184.04,-145.53 -363.21,-199.23 -604.96,-9.38 -131.68,103.42 -282.95,367.42 -577.04,255.15 -34.7,-27.67 -58.18,-228.03 -235.26,-285.3 -91.61,-29.63 -100.7,-19.68 -133.4,25.84 50.36,67.84 282.68,42.66 272.66,284.73 -3.5,84.45 -55.21,143.13 -98.01,175.07 -115.99,86.55 -138.89,2.95 -175.67,116.63 194.5,46.67 293.99,-97.44 354.71,-238.34 475.13,164.45 565.32,-456.43 959.2,-369.53 282.21,62.27 238.29,350.48 238.16,469.56 -0.22,232.7 2.12,466.2 0.6,698.89 -398.56,2.26 -562.77,295.1 -522.52,394.03 82.41,-2.82 37.23,28.61 91.08,-80.94 35.22,-71.67 12.5,-49.03 67.76,-107.93 64.63,-68.9 137.73,-96.86 258.25,-122.81zm-53.21 -3098.72c-43.18,-169.97 148.86,-285.3 291.27,-247.81 146.41,142.8 155.58,376.62 -88.19,396.48 -70.2,5.72 -167.8,-94.67 -203.08,-148.67z"/>
   <path class="fil1 str1" d="M9858.57 13161.23c-92.87,611.83 -124.31,960.62 -94.32,1046.39 62.82,366.83 332.4,599.12 808.78,696.82 1023.3,112.26 4222.59,47.45 4842.22,-733.77 322.09,-302.92 450.42,-924.38 385.01,-1864.4m-867.41 -1215.93c600.55,51.21 1168.03,51.21 1702.48,0m0 0c64.82,130.65 64.82,242.7 0,336.16m-1692.87 -0.91c600.53,51.21 1168.02,51.21 1702.46,0m-1717.59 -15.13c8.91,180.08 47.85,299.37 116.84,357.85m0 0c524.94,40.42 1024.37,41.23 1498.23,2.48m0 0c-282.32,312.87 -501.58,647.65 -985.87,490.49 -58.73,-15.51 -188.5,-107.36 -351.38,-313.46m3700.15 -445.66c-492,701.35 -816.1,1235.87 -972.32,1603.52 -237.9,799.57 -275.77,1515.14 -113.64,2146.71 80.71,354.66 141.97,593.22 183.76,715.65m-8144.53 -2806.81c-192.98,-227.59 -239.22,-451.67 -138.72,-672.23 -224.56,-278.91 -260.07,-492.2 -106.52,-639.84 72.19,-107.56 115.3,-189.63 129.35,-246.21 -363.23,-301.45 -504.12,-495.63 -601.42,-571.93 -203.84,-293.7 743.45,-1236.81 885.09,-1417.89 390.2,-1313.68 572.07,-2247.25 1271.34,-3471.2 575.29,-1532.63 3011.45,-1903.11 4431.05,-1818.6 1249.6,201.23 2287.74,692.85 3114.46,1474.89 630.84,715.09 987.48,1535.76 1069.94,2462.05 104.65,848.7 -564.92,2521.49 -1007.84,3241.89"/>
   <path class="fil1 str1" d="M14328.16 9242.41c260.15,487.8 383.62,899.32 370.43,1234.54 24.73,184.68 119.51,297.98 284.32,339.92 177.45,1.42 307.1,2.44 388.99,3.06 719.48,3.15 1100.82,1.54 1144.04,-4.84 153.95,-37.34 252.97,-145.04 297.12,-323.11m0 0c28.8,-509.04 155.18,-904.72 379.13,-1187 285.91,-400.96 426.82,-689.42 422.72,-865.38"/>
  </g>
 </g>
</svg>